# White Tea Service — UtahTeapot
mtllib WhiteDielectric.mtl
o UtahTeapot
usemtl WhiteDielectric
v 0.000000000 0.000000000 0.000000000
v 0.000000000 0.000000000 0.000000000
v 0.000000000 0.000000000 0.000000000
v 0.000000000 0.000000000 0.000000000
v 0.000000000 0.000000000 0.000000000
v 0.000000000 0.000000000 0.000000000
v 0.000000000 0.000000000 0.000000000
v 0.000000000 0.000000000 0.000000000
v 0.000000000 0.000000000 0.000000000
v -0.000000000 0.000000000 0.000000000
v -0.000000000 0.000000000 0.000000000
v -0.000000000 0.000000000 0.000000000
v -0.000000000 0.000000000 0.000000000
v -0.000000000 0.000000000 0.000000000
v -0.000000000 0.000000000 0.000000000
v -0.000000000 0.000000000 0.000000000
v -0.000000000 0.000000000 0.000000000
v -0.000000000 0.000000000 -0.000000000
v -0.000000000 0.000000000 -0.000000000
v -0.000000000 0.000000000 -0.000000000
v -0.000000000 0.000000000 -0.000000000
v -0.000000000 0.000000000 -0.000000000
v -0.000000000 0.000000000 -0.000000000
v -0.000000000 0.000000000 -0.000000000
v -0.000000000 0.000000000 -0.000000000
v 0.000000000 0.000000000 -0.000000000
v 0.000000000 0.000000000 -0.000000000
v 0.000000000 0.000000000 -0.000000000
v 0.000000000 0.000000000 -0.000000000
v 0.000000000 0.000000000 -0.000000000
v 0.000000000 0.000000000 -0.000000000
v 0.000000000 0.000000000 -0.000000000
v 0.105000000 0.000000000 0.000000000
v 0.102982454 0.000000000 0.020484484
v 0.097007351 0.000000000 0.040181760
v 0.087304309 0.000000000 0.058334874
v 0.074246212 0.000000000 0.074246212
v 0.058334874 0.000000000 0.087304309
v 0.040181760 0.000000000 0.097007351
v 0.020484484 0.000000000 0.102982454
v 0.000000000 0.000000000 0.105000000
v -0.020484484 0.000000000 0.102982454
v -0.040181760 0.000000000 0.097007351
v -0.058334874 0.000000000 0.087304309
v -0.074246212 0.000000000 0.074246212
v -0.087304309 0.000000000 0.058334874
v -0.097007351 0.000000000 0.040181760
v -0.102982454 0.000000000 0.020484484
v -0.105000000 0.000000000 0.000000000
v -0.102982454 0.000000000 -0.020484484
v -0.097007351 0.000000000 -0.040181760
v -0.087304309 0.000000000 -0.058334874
v -0.074246212 0.000000000 -0.074246212
v -0.058334874 0.000000000 -0.087304309
v -0.040181760 0.000000000 -0.097007351
v -0.020484484 0.000000000 -0.102982454
v -0.000000000 0.000000000 -0.105000000
v 0.020484484 0.000000000 -0.102982454
v 0.040181760 0.000000000 -0.097007351
v 0.058334874 0.000000000 -0.087304309
v 0.074246212 0.000000000 -0.074246212
v 0.087304309 0.000000000 -0.058334874
v 0.097007351 0.000000000 -0.040181760
v 0.102982454 0.000000000 -0.020484484
v 0.155000000 0.040000000 0.000000000
v 0.152021718 0.040000000 0.030239000
v 0.143201328 0.040000000 0.059315932
v 0.128877790 0.040000000 0.086113386
v 0.109601551 0.040000000 0.109601551
v 0.086113386 0.040000000 0.128877790
v 0.059315932 0.040000000 0.143201328
v 0.030239000 0.040000000 0.152021718
v 0.000000000 0.040000000 0.155000000
v -0.030239000 0.040000000 0.152021718
v -0.059315932 0.040000000 0.143201328
v -0.086113386 0.040000000 0.128877790
v -0.109601551 0.040000000 0.109601551
v -0.128877790 0.040000000 0.086113386
v -0.143201328 0.040000000 0.059315932
v -0.152021718 0.040000000 0.030239000
v -0.155000000 0.040000000 0.000000000
v -0.152021718 0.040000000 -0.030239000
v -0.143201328 0.040000000 -0.059315932
v -0.128877790 0.040000000 -0.086113386
v -0.109601551 0.040000000 -0.109601551
v -0.086113386 0.040000000 -0.128877790
v -0.059315932 0.040000000 -0.143201328
v -0.030239000 0.040000000 -0.152021718
v -0.000000000 0.040000000 -0.155000000
v 0.030239000 0.040000000 -0.152021718
v 0.059315932 0.040000000 -0.143201328
v 0.086113386 0.040000000 -0.128877790
v 0.109601551 0.040000000 -0.109601551
v 0.128877790 0.040000000 -0.086113386
v 0.143201328 0.040000000 -0.059315932
v 0.152021718 0.040000000 -0.030239000
v 0.182000000 0.140000000 0.000000000
v 0.178502921 0.140000000 0.035506439
v 0.168146075 0.140000000 0.069648385
v 0.151327469 0.140000000 0.101113782
v 0.128693434 0.140000000 0.128693434
v 0.101113782 0.140000000 0.151327469
v 0.069648385 0.140000000 0.168146075
v 0.035506439 0.140000000 0.178502921
v 0.000000000 0.140000000 0.182000000
v -0.035506439 0.140000000 0.178502921
v -0.069648385 0.140000000 0.168146075
v -0.101113782 0.140000000 0.151327469
v -0.128693434 0.140000000 0.128693434
v -0.151327469 0.140000000 0.101113782
v -0.168146075 0.140000000 0.069648385
v -0.178502921 0.140000000 0.035506439
v -0.182000000 0.140000000 0.000000000
v -0.178502921 0.140000000 -0.035506439
v -0.168146075 0.140000000 -0.069648385
v -0.151327469 0.140000000 -0.101113782
v -0.128693434 0.140000000 -0.128693434
v -0.101113782 0.140000000 -0.151327469
v -0.069648385 0.140000000 -0.168146075
v -0.035506439 0.140000000 -0.178502921
v -0.000000000 0.140000000 -0.182000000
v 0.035506439 0.140000000 -0.178502921
v 0.069648385 0.140000000 -0.168146075
v 0.101113782 0.140000000 -0.151327469
v 0.128693434 0.140000000 -0.128693434
v 0.151327469 0.140000000 -0.101113782
v 0.168146075 0.140000000 -0.069648385
v 0.178502921 0.140000000 -0.035506439
v 0.175000000 0.230000000 0.000000000
v 0.171637424 0.230000000 0.034140806
v 0.161678918 0.230000000 0.066969601
v 0.145507182 0.230000000 0.097224791
v 0.123743687 0.230000000 0.123743687
v 0.097224791 0.230000000 0.145507182
v 0.066969601 0.230000000 0.161678918
v 0.034140806 0.230000000 0.171637424
v 0.000000000 0.230000000 0.175000000
v -0.034140806 0.230000000 0.171637424
v -0.066969601 0.230000000 0.161678918
v -0.097224791 0.230000000 0.145507182
v -0.123743687 0.230000000 0.123743687
v -0.145507182 0.230000000 0.097224791
v -0.161678918 0.230000000 0.066969601
v -0.171637424 0.230000000 0.034140806
v -0.175000000 0.230000000 0.000000000
v -0.171637424 0.230000000 -0.034140806
v -0.161678918 0.230000000 -0.066969601
v -0.145507182 0.230000000 -0.097224791
v -0.123743687 0.230000000 -0.123743687
v -0.097224791 0.230000000 -0.145507182
v -0.066969601 0.230000000 -0.161678918
v -0.034140806 0.230000000 -0.171637424
v -0.000000000 0.230000000 -0.175000000
v 0.034140806 0.230000000 -0.171637424
v 0.066969601 0.230000000 -0.161678918
v 0.097224791 0.230000000 -0.145507182
v 0.123743687 0.230000000 -0.123743687
v 0.145507182 0.230000000 -0.097224791
v 0.161678918 0.230000000 -0.066969601
v 0.171637424 0.230000000 -0.034140806
v 0.145000000 0.290000000 0.000000000
v 0.142213866 0.290000000 0.028288097
v 0.133962532 0.290000000 0.055489098
v 0.120563094 0.290000000 0.080557684
v 0.102530483 0.290000000 0.102530483
v 0.080557684 0.290000000 0.120563094
v 0.055489098 0.290000000 0.133962532
v 0.028288097 0.290000000 0.142213866
v 0.000000000 0.290000000 0.145000000
v -0.028288097 0.290000000 0.142213866
v -0.055489098 0.290000000 0.133962532
v -0.080557684 0.290000000 0.120563094
v -0.102530483 0.290000000 0.102530483
v -0.120563094 0.290000000 0.080557684
v -0.133962532 0.290000000 0.055489098
v -0.142213866 0.290000000 0.028288097
v -0.145000000 0.290000000 0.000000000
v -0.142213866 0.290000000 -0.028288097
v -0.133962532 0.290000000 -0.055489098
v -0.120563094 0.290000000 -0.080557684
v -0.102530483 0.290000000 -0.102530483
v -0.080557684 0.290000000 -0.120563094
v -0.055489098 0.290000000 -0.133962532
v -0.028288097 0.290000000 -0.142213866
v -0.000000000 0.290000000 -0.145000000
v 0.028288097 0.290000000 -0.142213866
v 0.055489098 0.290000000 -0.133962532
v 0.080557684 0.290000000 -0.120563094
v 0.102530483 0.290000000 -0.102530483
v 0.120563094 0.290000000 -0.080557684
v 0.133962532 0.290000000 -0.055489098
v 0.142213866 0.290000000 -0.028288097
v 0.095000000 0.310000000 0.000000000
v 0.093174602 0.310000000 0.018533581
v 0.087768556 0.310000000 0.036354926
v 0.078989613 0.310000000 0.052779172
v 0.067175144 0.310000000 0.067175144
v 0.052779172 0.310000000 0.078989613
v 0.036354926 0.310000000 0.087768556
v 0.018533581 0.310000000 0.093174602
v 0.000000000 0.310000000 0.095000000
v -0.018533581 0.310000000 0.093174602
v -0.036354926 0.310000000 0.087768556
v -0.052779172 0.310000000 0.078989613
v -0.067175144 0.310000000 0.067175144
v -0.078989613 0.310000000 0.052779172
v -0.087768556 0.310000000 0.036354926
v -0.093174602 0.310000000 0.018533581
v -0.095000000 0.310000000 0.000000000
v -0.093174602 0.310000000 -0.018533581
v -0.087768556 0.310000000 -0.036354926
v -0.078989613 0.310000000 -0.052779172
v -0.067175144 0.310000000 -0.067175144
v -0.052779172 0.310000000 -0.078989613
v -0.036354926 0.310000000 -0.087768556
v -0.018533581 0.310000000 -0.093174602
v -0.000000000 0.310000000 -0.095000000
v 0.018533581 0.310000000 -0.093174602
v 0.036354926 0.310000000 -0.087768556
v 0.052779172 0.310000000 -0.078989613
v 0.067175144 0.310000000 -0.067175144
v 0.078989613 0.310000000 -0.052779172
v 0.087768556 0.310000000 -0.036354926
v 0.093174602 0.310000000 -0.018533581
v 0.000000000 0.310000000 0.000000000
v 0.000000000 0.310000000 0.000000000
v 0.000000000 0.310000000 0.000000000
v 0.000000000 0.310000000 0.000000000
v 0.000000000 0.310000000 0.000000000
v 0.000000000 0.310000000 0.000000000
v 0.000000000 0.310000000 0.000000000
v 0.000000000 0.310000000 0.000000000
v 0.000000000 0.310000000 0.000000000
v -0.000000000 0.310000000 0.000000000
v -0.000000000 0.310000000 0.000000000
v -0.000000000 0.310000000 0.000000000
v -0.000000000 0.310000000 0.000000000
v -0.000000000 0.310000000 0.000000000
v -0.000000000 0.310000000 0.000000000
v -0.000000000 0.310000000 0.000000000
v -0.000000000 0.310000000 0.000000000
v -0.000000000 0.310000000 -0.000000000
v -0.000000000 0.310000000 -0.000000000
v -0.000000000 0.310000000 -0.000000000
v -0.000000000 0.310000000 -0.000000000
v -0.000000000 0.310000000 -0.000000000
v -0.000000000 0.310000000 -0.000000000
v -0.000000000 0.310000000 -0.000000000
v -0.000000000 0.310000000 -0.000000000
v 0.000000000 0.310000000 -0.000000000
v 0.000000000 0.310000000 -0.000000000
v 0.000000000 0.310000000 -0.000000000
v 0.000000000 0.310000000 -0.000000000
v 0.000000000 0.310000000 -0.000000000
v 0.000000000 0.310000000 -0.000000000
v 0.000000000 0.310000000 -0.000000000
vt 0.000000000 0.000000000
vt 0.031250000 0.000000000
vt 0.062500000 0.000000000
vt 0.093750000 0.000000000
vt 0.125000000 0.000000000
vt 0.156250000 0.000000000
vt 0.187500000 0.000000000
vt 0.218750000 0.000000000
vt 0.250000000 0.000000000
vt 0.281250000 0.000000000
vt 0.312500000 0.000000000
vt 0.343750000 0.000000000
vt 0.375000000 0.000000000
vt 0.406250000 0.000000000
vt 0.437500000 0.000000000
vt 0.468750000 0.000000000
vt 0.500000000 0.000000000
vt 0.531250000 0.000000000
vt 0.562500000 0.000000000
vt 0.593750000 0.000000000
vt 0.625000000 0.000000000
vt 0.656250000 0.000000000
vt 0.687500000 0.000000000
vt 0.718750000 0.000000000
vt 0.750000000 0.000000000
vt 0.781250000 0.000000000
vt 0.812500000 0.000000000
vt 0.843750000 0.000000000
vt 0.875000000 0.000000000
vt 0.906250000 0.000000000
vt 0.937500000 0.000000000
vt 0.968750000 0.000000000
vt 0.000000000 0.142857143
vt 0.031250000 0.142857143
vt 0.062500000 0.142857143
vt 0.093750000 0.142857143
vt 0.125000000 0.142857143
vt 0.156250000 0.142857143
vt 0.187500000 0.142857143
vt 0.218750000 0.142857143
vt 0.250000000 0.142857143
vt 0.281250000 0.142857143
vt 0.312500000 0.142857143
vt 0.343750000 0.142857143
vt 0.375000000 0.142857143
vt 0.406250000 0.142857143
vt 0.437500000 0.142857143
vt 0.468750000 0.142857143
vt 0.500000000 0.142857143
vt 0.531250000 0.142857143
vt 0.562500000 0.142857143
vt 0.593750000 0.142857143
vt 0.625000000 0.142857143
vt 0.656250000 0.142857143
vt 0.687500000 0.142857143
vt 0.718750000 0.142857143
vt 0.750000000 0.142857143
vt 0.781250000 0.142857143
vt 0.812500000 0.142857143
vt 0.843750000 0.142857143
vt 0.875000000 0.142857143
vt 0.906250000 0.142857143
vt 0.937500000 0.142857143
vt 0.968750000 0.142857143
vt 0.000000000 0.285714286
vt 0.031250000 0.285714286
vt 0.062500000 0.285714286
vt 0.093750000 0.285714286
vt 0.125000000 0.285714286
vt 0.156250000 0.285714286
vt 0.187500000 0.285714286
vt 0.218750000 0.285714286
vt 0.250000000 0.285714286
vt 0.281250000 0.285714286
vt 0.312500000 0.285714286
vt 0.343750000 0.285714286
vt 0.375000000 0.285714286
vt 0.406250000 0.285714286
vt 0.437500000 0.285714286
vt 0.468750000 0.285714286
vt 0.500000000 0.285714286
vt 0.531250000 0.285714286
vt 0.562500000 0.285714286
vt 0.593750000 0.285714286
vt 0.625000000 0.285714286
vt 0.656250000 0.285714286
vt 0.687500000 0.285714286
vt 0.718750000 0.285714286
vt 0.750000000 0.285714286
vt 0.781250000 0.285714286
vt 0.812500000 0.285714286
vt 0.843750000 0.285714286
vt 0.875000000 0.285714286
vt 0.906250000 0.285714286
vt 0.937500000 0.285714286
vt 0.968750000 0.285714286
vt 0.000000000 0.428571429
vt 0.031250000 0.428571429
vt 0.062500000 0.428571429
vt 0.093750000 0.428571429
vt 0.125000000 0.428571429
vt 0.156250000 0.428571429
vt 0.187500000 0.428571429
vt 0.218750000 0.428571429
vt 0.250000000 0.428571429
vt 0.281250000 0.428571429
vt 0.312500000 0.428571429
vt 0.343750000 0.428571429
vt 0.375000000 0.428571429
vt 0.406250000 0.428571429
vt 0.437500000 0.428571429
vt 0.468750000 0.428571429
vt 0.500000000 0.428571429
vt 0.531250000 0.428571429
vt 0.562500000 0.428571429
vt 0.593750000 0.428571429
vt 0.625000000 0.428571429
vt 0.656250000 0.428571429
vt 0.687500000 0.428571429
vt 0.718750000 0.428571429
vt 0.750000000 0.428571429
vt 0.781250000 0.428571429
vt 0.812500000 0.428571429
vt 0.843750000 0.428571429
vt 0.875000000 0.428571429
vt 0.906250000 0.428571429
vt 0.937500000 0.428571429
vt 0.968750000 0.428571429
vt 0.000000000 0.571428571
vt 0.031250000 0.571428571
vt 0.062500000 0.571428571
vt 0.093750000 0.571428571
vt 0.125000000 0.571428571
vt 0.156250000 0.571428571
vt 0.187500000 0.571428571
vt 0.218750000 0.571428571
vt 0.250000000 0.571428571
vt 0.281250000 0.571428571
vt 0.312500000 0.571428571
vt 0.343750000 0.571428571
vt 0.375000000 0.571428571
vt 0.406250000 0.571428571
vt 0.437500000 0.571428571
vt 0.468750000 0.571428571
vt 0.500000000 0.571428571
vt 0.531250000 0.571428571
vt 0.562500000 0.571428571
vt 0.593750000 0.571428571
vt 0.625000000 0.571428571
vt 0.656250000 0.571428571
vt 0.687500000 0.571428571
vt 0.718750000 0.571428571
vt 0.750000000 0.571428571
vt 0.781250000 0.571428571
vt 0.812500000 0.571428571
vt 0.843750000 0.571428571
vt 0.875000000 0.571428571
vt 0.906250000 0.571428571
vt 0.937500000 0.571428571
vt 0.968750000 0.571428571
vt 0.000000000 0.714285714
vt 0.031250000 0.714285714
vt 0.062500000 0.714285714
vt 0.093750000 0.714285714
vt 0.125000000 0.714285714
vt 0.156250000 0.714285714
vt 0.187500000 0.714285714
vt 0.218750000 0.714285714
vt 0.250000000 0.714285714
vt 0.281250000 0.714285714
vt 0.312500000 0.714285714
vt 0.343750000 0.714285714
vt 0.375000000 0.714285714
vt 0.406250000 0.714285714
vt 0.437500000 0.714285714
vt 0.468750000 0.714285714
vt 0.500000000 0.714285714
vt 0.531250000 0.714285714
vt 0.562500000 0.714285714
vt 0.593750000 0.714285714
vt 0.625000000 0.714285714
vt 0.656250000 0.714285714
vt 0.687500000 0.714285714
vt 0.718750000 0.714285714
vt 0.750000000 0.714285714
vt 0.781250000 0.714285714
vt 0.812500000 0.714285714
vt 0.843750000 0.714285714
vt 0.875000000 0.714285714
vt 0.906250000 0.714285714
vt 0.937500000 0.714285714
vt 0.968750000 0.714285714
vt 0.000000000 0.857142857
vt 0.031250000 0.857142857
vt 0.062500000 0.857142857
vt 0.093750000 0.857142857
vt 0.125000000 0.857142857
vt 0.156250000 0.857142857
vt 0.187500000 0.857142857
vt 0.218750000 0.857142857
vt 0.250000000 0.857142857
vt 0.281250000 0.857142857
vt 0.312500000 0.857142857
vt 0.343750000 0.857142857
vt 0.375000000 0.857142857
vt 0.406250000 0.857142857
vt 0.437500000 0.857142857
vt 0.468750000 0.857142857
vt 0.500000000 0.857142857
vt 0.531250000 0.857142857
vt 0.562500000 0.857142857
vt 0.593750000 0.857142857
vt 0.625000000 0.857142857
vt 0.656250000 0.857142857
vt 0.687500000 0.857142857
vt 0.718750000 0.857142857
vt 0.750000000 0.857142857
vt 0.781250000 0.857142857
vt 0.812500000 0.857142857
vt 0.843750000 0.857142857
vt 0.875000000 0.857142857
vt 0.906250000 0.857142857
vt 0.937500000 0.857142857
vt 0.968750000 0.857142857
vt 0.000000000 1.000000000
vt 0.031250000 1.000000000
vt 0.062500000 1.000000000
vt 0.093750000 1.000000000
vt 0.125000000 1.000000000
vt 0.156250000 1.000000000
vt 0.187500000 1.000000000
vt 0.218750000 1.000000000
vt 0.250000000 1.000000000
vt 0.281250000 1.000000000
vt 0.312500000 1.000000000
vt 0.343750000 1.000000000
vt 0.375000000 1.000000000
vt 0.406250000 1.000000000
vt 0.437500000 1.000000000
vt 0.468750000 1.000000000
vt 0.500000000 1.000000000
vt 0.531250000 1.000000000
vt 0.562500000 1.000000000
vt 0.593750000 1.000000000
vt 0.625000000 1.000000000
vt 0.656250000 1.000000000
vt 0.687500000 1.000000000
vt 0.718750000 1.000000000
vt 0.750000000 1.000000000
vt 0.781250000 1.000000000
vt 0.812500000 1.000000000
vt 0.843750000 1.000000000
vt 0.875000000 1.000000000
vt 0.906250000 1.000000000
vt 0.937500000 1.000000000
vt 0.968750000 1.000000000
f 1/2 34/33 1/2 34/33
f 2/3 35/34 2/3 35/34
f 3/4 36/35 3/4 36/35
f 4/5 37/36 4/5 37/36
f 5/6 38/37 5/6 38/37
f 6/7 39/38 6/7 39/38
f 7/8 40/39 7/8 40/39
f 8/9 41/40 8/9 41/40
f 9/10 42/41 9/10 42/41
f 10/11 43/42 10/11 43/42
f 11/12 44/43 11/12 44/43
f 12/13 45/44 12/13 45/44
f 13/14 46/45 13/14 46/45
f 14/15 47/46 14/15 47/46
f 15/16 48/47 15/16 48/47
f 16/17 49/48 16/17 49/48
f 17/18 50/49 17/18 50/49
f 18/19 51/50 18/19 51/50
f 19/20 52/51 19/20 52/51
f 20/21 53/52 20/21 53/52
f 21/22 54/53 21/22 54/53
f 22/23 55/54 22/23 55/54
f 23/24 56/55 23/24 56/55
f 24/25 57/56 24/25 57/56
f 25/26 58/57 25/26 58/57
f 26/27 59/58 26/27 59/58
f 27/28 60/59 27/28 60/59
f 28/29 61/60 28/29 61/60
f 29/30 62/61 29/30 62/61
f 30/31 63/62 30/31 63/62
f 31/32 64/63 31/32 64/63
f 32/1 33/64 32/1 33/64
f 33/34 66/65 33/34 66/65
f 34/35 67/66 34/35 67/66
f 35/36 68/67 35/36 68/67
f 36/37 69/68 36/37 69/68
f 37/38 70/69 37/38 70/69
f 38/39 71/70 38/39 71/70
f 39/40 72/71 39/40 72/71
f 40/41 73/72 40/41 73/72
f 41/42 74/73 41/42 74/73
f 42/43 75/74 42/43 75/74
f 43/44 76/75 43/44 76/75
f 44/45 77/76 44/45 77/76
f 45/46 78/77 45/46 78/77
f 46/47 79/78 46/47 79/78
f 47/48 80/79 47/48 80/79
f 48/49 81/80 48/49 81/80
f 49/50 82/81 49/50 82/81
f 50/51 83/82 50/51 83/82
f 51/52 84/83 51/52 84/83
f 52/53 85/84 52/53 85/84
f 53/54 86/85 53/54 86/85
f 54/55 87/86 54/55 87/86
f 55/56 88/87 55/56 88/87
f 56/57 89/88 56/57 89/88
f 57/58 90/89 57/58 90/89
f 58/59 91/90 58/59 91/90
f 59/60 92/91 59/60 92/91
f 60/61 93/92 60/61 93/92
f 61/62 94/93 61/62 94/93
f 62/63 95/94 62/63 95/94
f 63/64 96/95 63/64 96/95
f 64/33 65/96 64/33 65/96
f 65/66 98/97 65/66 98/97
f 66/67 99/98 66/67 99/98
f 67/68 100/99 67/68 100/99
f 68/69 101/100 68/69 101/100
f 69/70 102/101 69/70 102/101
f 70/71 103/102 70/71 103/102
f 71/72 104/103 71/72 104/103
f 72/73 105/104 72/73 105/104
f 73/74 106/105 73/74 106/105
f 74/75 107/106 74/75 107/106
f 75/76 108/107 75/76 108/107
f 76/77 109/108 76/77 109/108
f 77/78 110/109 77/78 110/109
f 78/79 111/110 78/79 111/110
f 79/80 112/111 79/80 112/111
f 80/81 113/112 80/81 113/112
f 81/82 114/113 81/82 114/113
f 82/83 115/114 82/83 115/114
f 83/84 116/115 83/84 116/115
f 84/85 117/116 84/85 117/116
f 85/86 118/117 85/86 118/117
f 86/87 119/118 86/87 119/118
f 87/88 120/119 87/88 120/119
f 88/89 121/120 88/89 121/120
f 89/90 122/121 89/90 122/121
f 90/91 123/122 90/91 123/122
f 91/92 124/123 91/92 124/123
f 92/93 125/124 92/93 125/124
f 93/94 126/125 93/94 126/125
f 94/95 127/126 94/95 127/126
f 95/96 128/127 95/96 128/127
f 96/65 97/128 96/65 97/128
f 97/98 130/129 97/98 130/129
f 98/99 131/130 98/99 131/130
f 99/100 132/131 99/100 132/131
f 100/101 133/132 100/101 133/132
f 101/102 134/133 101/102 134/133
f 102/103 135/134 102/103 135/134
f 103/104 136/135 103/104 136/135
f 104/105 137/136 104/105 137/136
f 105/106 138/137 105/106 138/137
f 106/107 139/138 106/107 139/138
f 107/108 140/139 107/108 140/139
f 108/109 141/140 108/109 141/140
f 109/110 142/141 109/110 142/141
f 110/111 143/142 110/111 143/142
f 111/112 144/143 111/112 144/143
f 112/113 145/144 112/113 145/144
f 113/114 146/145 113/114 146/145
f 114/115 147/146 114/115 147/146
f 115/116 148/147 115/116 148/147
f 116/117 149/148 116/117 149/148
f 117/118 150/149 117/118 150/149
f 118/119 151/150 118/119 151/150
f 119/120 152/151 119/120 152/151
f 120/121 153/152 120/121 153/152
f 121/122 154/153 121/122 154/153
f 122/123 155/154 122/123 155/154
f 123/124 156/155 123/124 156/155
f 124/125 157/156 124/125 157/156
f 125/126 158/157 125/126 158/157
f 126/127 159/158 126/127 159/158
f 127/128 160/159 127/128 160/159
f 128/97 129/160 128/97 129/160
f 129/130 162/161 129/130 162/161
f 130/131 163/162 130/131 163/162
f 131/132 164/163 131/132 164/163
f 132/133 165/164 132/133 165/164
f 133/134 166/165 133/134 166/165
f 134/135 167/166 134/135 167/166
f 135/136 168/167 135/136 168/167
f 136/137 169/168 136/137 169/168
f 137/138 170/169 137/138 170/169
f 138/139 171/170 138/139 171/170
f 139/140 172/171 139/140 172/171
f 140/141 173/172 140/141 173/172
f 141/142 174/173 141/142 174/173
f 142/143 175/174 142/143 175/174
f 143/144 176/175 143/144 176/175
f 144/145 177/176 144/145 177/176
f 145/146 178/177 145/146 178/177
f 146/147 179/178 146/147 179/178
f 147/148 180/179 147/148 180/179
f 148/149 181/180 148/149 181/180
f 149/150 182/181 149/150 182/181
f 150/151 183/182 150/151 183/182
f 151/152 184/183 151/152 184/183
f 152/153 185/184 152/153 185/184
f 153/154 186/185 153/154 186/185
f 154/155 187/186 154/155 187/186
f 155/156 188/187 155/156 188/187
f 156/157 189/188 156/157 189/188
f 157/158 190/189 157/158 190/189
f 158/159 191/190 158/159 191/190
f 159/160 192/191 159/160 192/191
f 160/129 161/192 160/129 161/192
f 161/162 194/193 161/162 194/193
f 162/163 195/194 162/163 195/194
f 163/164 196/195 163/164 196/195
f 164/165 197/196 164/165 197/196
f 165/166 198/197 165/166 198/197
f 166/167 199/198 166/167 199/198
f 167/168 200/199 167/168 200/199
f 168/169 201/200 168/169 201/200
f 169/170 202/201 169/170 202/201
f 170/171 203/202 170/171 203/202
f 171/172 204/203 171/172 204/203
f 172/173 205/204 172/173 205/204
f 173/174 206/205 173/174 206/205
f 174/175 207/206 174/175 207/206
f 175/176 208/207 175/176 208/207
f 176/177 209/208 176/177 209/208
f 177/178 210/209 177/178 210/209
f 178/179 211/210 178/179 211/210
f 179/180 212/211 179/180 212/211
f 180/181 213/212 180/181 213/212
f 181/182 214/213 181/182 214/213
f 182/183 215/214 182/183 215/214
f 183/184 216/215 183/184 216/215
f 184/185 217/216 184/185 217/216
f 185/186 218/217 185/186 218/217
f 186/187 219/218 186/187 219/218
f 187/188 220/219 187/188 220/219
f 188/189 221/220 188/189 221/220
f 189/190 222/221 189/190 222/221
f 190/191 223/222 190/191 223/222
f 191/192 224/223 191/192 224/223
f 192/161 193/224 192/161 193/224
f 193/194 226/225 193/194 226/225
f 194/195 227/226 194/195 227/226
f 195/196 228/227 195/196 228/227
f 196/197 229/228 196/197 229/228
f 197/198 230/229 197/198 230/229
f 198/199 231/230 198/199 231/230
f 199/200 232/231 199/200 232/231
f 200/201 233/232 200/201 233/232
f 201/202 234/233 201/202 234/233
f 202/203 235/234 202/203 235/234
f 203/204 236/235 203/204 236/235
f 204/205 237/236 204/205 237/236
f 205/206 238/237 205/206 238/237
f 206/207 239/238 206/207 239/238
f 207/208 240/239 207/208 240/239
f 208/209 241/240 208/209 241/240
f 209/210 242/241 209/210 242/241
f 210/211 243/242 210/211 243/242
f 211/212 244/243 211/212 244/243
f 212/213 245/244 212/213 245/244
f 213/214 246/245 213/214 246/245
f 214/215 247/246 214/215 247/246
f 215/216 248/247 215/216 248/247
f 216/217 249/248 216/217 249/248
f 217/218 250/249 217/218 250/249
f 218/219 251/250 218/219 251/250
f 219/220 252/251 219/220 252/251
f 220/221 253/252 220/221 253/252
f 221/222 254/253 221/222 254/253
f 222/223 255/254 222/223 255/254
f 223/224 256/255 223/224 256/255
f 224/193 225/256 224/193 225/256
g Handle
v -0.170000000 0.052000000 0.000000000
vt 0.000000000 0.000000000
v -0.170000000 0.054411543 0.009000000
vt 0.000000000 0.083333333
v -0.170000000 0.061000000 0.015588457
vt 0.000000000 0.166666667
v -0.170000000 0.070000000 0.018000000
vt 0.000000000 0.250000000
v -0.170000000 0.079000000 0.015588457
vt 0.000000000 0.333333333
v -0.170000000 0.085588457 0.009000000
vt 0.000000000 0.416666667
v -0.170000000 0.088000000 0.000000000
vt 0.000000000 0.500000000
v -0.170000000 0.085588457 -0.009000000
vt 0.000000000 0.583333333
v -0.170000000 0.079000000 -0.015588457
vt 0.000000000 0.666666667
v -0.170000000 0.070000000 -0.018000000
vt 0.000000000 0.750000000
v -0.170000000 0.061000000 -0.015588457
vt 0.000000000 0.833333333
v -0.170000000 0.054411543 -0.009000000
vt 0.000000000 0.916666667
v -0.151245997 0.053640763 0.000000000
vt 0.055555556 0.000000000
v -0.151664757 0.056015669 0.009000000
vt 0.055555556 0.083333333
v -0.152808830 0.062504032 0.015588457
vt 0.055555556 0.166666667
v -0.154371664 0.071367302 0.018000000
vt 0.055555556 0.250000000
v -0.155934498 0.080230572 0.015588457
vt 0.055555556 0.333333333
v -0.157078571 0.086718936 0.009000000
vt 0.055555556 0.416666667
v -0.157497331 0.089093842 0.000000000
vt 0.055555556 0.500000000
v -0.157078571 0.086718936 -0.009000000
vt 0.055555556 0.583333333
v -0.155934498 0.080230572 -0.015588457
vt 0.055555556 0.666666667
v -0.154371664 0.071367302 -0.018000000
vt 0.055555556 0.750000000
v -0.152808830 0.062504032 -0.015588457
vt 0.055555556 0.833333333
v -0.151664757 0.056015669 -0.009000000
vt 0.055555556 0.916666667
v -0.133061825 0.058513197 0.000000000
vt 0.111111111 0.000000000
v -0.133886621 0.060779306 0.009000000
vt 0.111111111 0.083333333
v -0.136140006 0.066970431 0.015588457
vt 0.111111111 0.166666667
v -0.139218187 0.075427664 0.018000000
vt 0.111111111 0.250000000
v -0.142296368 0.083884898 0.015588457
vt 0.111111111 0.333333333
v -0.144549753 0.090076022 0.009000000
vt 0.111111111 0.416666667
v -0.145374550 0.092342131 0.000000000
vt 0.111111111 0.500000000
v -0.144549753 0.090076022 -0.009000000
vt 0.111111111 0.583333333
v -0.142296368 0.083884898 -0.015588457
vt 0.111111111 0.666666667
v -0.139218187 0.075427664 -0.018000000
vt 0.111111111 0.750000000
v -0.136140006 0.066970431 -0.015588457
vt 0.111111111 0.833333333
v -0.133886621 0.060779306 -0.009000000
vt 0.111111111 0.916666667
v -0.116000000 0.066469256 0.000000000
vt 0.166666667 0.000000000
v -0.117205771 0.068557714 0.009000000
vt 0.166666667 0.083333333
v -0.120500000 0.074263485 0.015588457
vt 0.166666667 0.166666667
v -0.125000000 0.082057714 0.018000000
vt 0.166666667 0.250000000
v -0.129500000 0.089851942 0.015588457
vt 0.166666667 0.333333333
v -0.132794229 0.095557714 0.009000000
vt 0.166666667 0.416666667
v -0.134000000 0.097646171 0.000000000
vt 0.166666667 0.500000000
v -0.132794229 0.095557714 -0.009000000
vt 0.166666667 0.583333333
v -0.129500000 0.089851942 -0.015588457
vt 0.166666667 0.666666667
v -0.125000000 0.082057714 -0.018000000
vt 0.166666667 0.750000000
v -0.120500000 0.074263485 -0.015588457
vt 0.166666667 0.833333333
v -0.117205771 0.068557714 -0.009000000
vt 0.166666667 0.916666667
v -0.100578938 0.077267200 0.000000000
vt 0.222222222 0.000000000
v -0.102129048 0.079114549 0.009000000
vt 0.222222222 0.083333333
v -0.106364027 0.084161600 0.015588457
vt 0.222222222 0.166666667
v -0.112149115 0.091056000 0.018000000
vt 0.222222222 0.250000000
v -0.117934204 0.097950400 0.015588457
vt 0.222222222 0.333333333
v -0.122169182 0.102997451 0.009000000
vt 0.222222222 0.416666667
v -0.123719292 0.104844800 0.000000000
vt 0.222222222 0.500000000
v -0.122169182 0.102997451 -0.009000000
vt 0.222222222 0.583333333
v -0.117934204 0.097950400 -0.015588457
vt 0.222222222 0.666666667
v -0.112149115 0.091056000 -0.018000000
vt 0.222222222 0.750000000
v -0.106364027 0.084161600 -0.015588457
vt 0.222222222 0.833333333
v -0.102129048 0.079114549 -0.009000000
vt 0.222222222 0.916666667
v -0.087267200 0.090578938 0.000000000
vt 0.277777778 0.000000000
v -0.089114549 0.092129048 0.009000000
vt 0.277777778 0.083333333
v -0.094161600 0.096364027 0.015588457
vt 0.277777778 0.166666667
v -0.101056000 0.102149115 0.018000000
vt 0.277777778 0.250000000
v -0.107950400 0.107934204 0.015588457
vt 0.277777778 0.333333333
v -0.112997451 0.112169182 0.009000000
vt 0.277777778 0.416666667
v -0.114844800 0.113719292 0.000000000
vt 0.277777778 0.500000000
v -0.112997451 0.112169182 -0.009000000
vt 0.277777778 0.583333333
v -0.107950400 0.107934204 -0.015588457
vt 0.277777778 0.666666667
v -0.101056000 0.102149115 -0.018000000
vt 0.277777778 0.750000000
v -0.094161600 0.096364027 -0.015588457
vt 0.277777778 0.833333333
v -0.089114549 0.092129048 -0.009000000
vt 0.277777778 0.916666667
v -0.076469256 0.106000000 0.000000000
vt 0.333333333 0.000000000
v -0.078557714 0.107205771 0.009000000
vt 0.333333333 0.083333333
v -0.084263485 0.110500000 0.015588457
vt 0.333333333 0.166666667
v -0.092057714 0.115000000 0.018000000
vt 0.333333333 0.250000000
v -0.099851942 0.119500000 0.015588457
vt 0.333333333 0.333333333
v -0.105557714 0.122794229 0.009000000
vt 0.333333333 0.416666667
v -0.107646171 0.124000000 0.000000000
vt 0.333333333 0.500000000
v -0.105557714 0.122794229 -0.009000000
vt 0.333333333 0.583333333
v -0.099851942 0.119500000 -0.015588457
vt 0.333333333 0.666666667
v -0.092057714 0.115000000 -0.018000000
vt 0.333333333 0.750000000
v -0.084263485 0.110500000 -0.015588457
vt 0.333333333 0.833333333
v -0.078557714 0.107205771 -0.009000000
vt 0.333333333 0.916666667
v -0.068513197 0.123061825 0.000000000
vt 0.388888889 0.000000000
v -0.070779306 0.123886621 0.009000000
vt 0.388888889 0.083333333
v -0.076970431 0.126140006 0.015588457
vt 0.388888889 0.166666667
v -0.085427664 0.129218187 0.018000000
vt 0.388888889 0.250000000
v -0.093884898 0.132296368 0.015588457
vt 0.388888889 0.333333333
v -0.100076022 0.134549753 0.009000000
vt 0.388888889 0.416666667
v -0.102342131 0.135374550 0.000000000
vt 0.388888889 0.500000000
v -0.100076022 0.134549753 -0.009000000
vt 0.388888889 0.583333333
v -0.093884898 0.132296368 -0.015588457
vt 0.388888889 0.666666667
v -0.085427664 0.129218187 -0.018000000
vt 0.388888889 0.750000000
v -0.076970431 0.126140006 -0.015588457
vt 0.388888889 0.833333333
v -0.070779306 0.123886621 -0.009000000
vt 0.388888889 0.916666667
v -0.063640763 0.141245997 0.000000000
vt 0.444444444 0.000000000
v -0.066015669 0.141664757 0.009000000
vt 0.444444444 0.083333333
v -0.072504032 0.142808830 0.015588457
vt 0.444444444 0.166666667
v -0.081367302 0.144371664 0.018000000
vt 0.444444444 0.250000000
v -0.090230572 0.145934498 0.015588457
vt 0.444444444 0.333333333
v -0.096718936 0.147078571 0.009000000
vt 0.444444444 0.416666667
v -0.099093842 0.147497331 0.000000000
vt 0.444444444 0.500000000
v -0.096718936 0.147078571 -0.009000000
vt 0.444444444 0.583333333
v -0.090230572 0.145934498 -0.015588457
vt 0.444444444 0.666666667
v -0.081367302 0.144371664 -0.018000000
vt 0.444444444 0.750000000
v -0.072504032 0.142808830 -0.015588457
vt 0.444444444 0.833333333
v -0.066015669 0.141664757 -0.009000000
vt 0.444444444 0.916666667
v -0.062000000 0.160000000 0.000000000
vt 0.500000000 0.000000000
v -0.064411543 0.160000000 0.009000000
vt 0.500000000 0.083333333
v -0.071000000 0.160000000 0.015588457
vt 0.500000000 0.166666667
v -0.080000000 0.160000000 0.018000000
vt 0.500000000 0.250000000
v -0.089000000 0.160000000 0.015588457
vt 0.500000000 0.333333333
v -0.095588457 0.160000000 0.009000000
vt 0.500000000 0.416666667
v -0.098000000 0.160000000 0.000000000
vt 0.500000000 0.500000000
v -0.095588457 0.160000000 -0.009000000
vt 0.500000000 0.583333333
v -0.089000000 0.160000000 -0.015588457
vt 0.500000000 0.666666667
v -0.080000000 0.160000000 -0.018000000
vt 0.500000000 0.750000000
v -0.071000000 0.160000000 -0.015588457
vt 0.500000000 0.833333333
v -0.064411543 0.160000000 -0.009000000
vt 0.500000000 0.916666667
v -0.063640763 0.178754003 0.000000000
vt 0.555555556 0.000000000
v -0.066015669 0.178335243 0.009000000
vt 0.555555556 0.083333333
v -0.072504032 0.177191170 0.015588457
vt 0.555555556 0.166666667
v -0.081367302 0.175628336 0.018000000
vt 0.555555556 0.250000000
v -0.090230572 0.174065502 0.015588457
vt 0.555555556 0.333333333
v -0.096718936 0.172921429 0.009000000
vt 0.555555556 0.416666667
v -0.099093842 0.172502669 0.000000000
vt 0.555555556 0.500000000
v -0.096718936 0.172921429 -0.009000000
vt 0.555555556 0.583333333
v -0.090230572 0.174065502 -0.015588457
vt 0.555555556 0.666666667
v -0.081367302 0.175628336 -0.018000000
vt 0.555555556 0.750000000
v -0.072504032 0.177191170 -0.015588457
vt 0.555555556 0.833333333
v -0.066015669 0.178335243 -0.009000000
vt 0.555555556 0.916666667
v -0.068513197 0.196938175 0.000000000
vt 0.611111111 0.000000000
v -0.070779306 0.196113379 0.009000000
vt 0.611111111 0.083333333
v -0.076970431 0.193859994 0.015588457
vt 0.611111111 0.166666667
v -0.085427664 0.190781813 0.018000000
vt 0.611111111 0.250000000
v -0.093884898 0.187703632 0.015588457
vt 0.611111111 0.333333333
v -0.100076022 0.185450247 0.009000000
vt 0.611111111 0.416666667
v -0.102342131 0.184625450 0.000000000
vt 0.611111111 0.500000000
v -0.100076022 0.185450247 -0.009000000
vt 0.611111111 0.583333333
v -0.093884898 0.187703632 -0.015588457
vt 0.611111111 0.666666667
v -0.085427664 0.190781813 -0.018000000
vt 0.611111111 0.750000000
v -0.076970431 0.193859994 -0.015588457
vt 0.611111111 0.833333333
v -0.070779306 0.196113379 -0.009000000
vt 0.611111111 0.916666667
v -0.076469256 0.214000000 0.000000000
vt 0.666666667 0.000000000
v -0.078557714 0.212794229 0.009000000
vt 0.666666667 0.083333333
v -0.084263485 0.209500000 0.015588457
vt 0.666666667 0.166666667
v -0.092057714 0.205000000 0.018000000
vt 0.666666667 0.250000000
v -0.099851942 0.200500000 0.015588457
vt 0.666666667 0.333333333
v -0.105557714 0.197205771 0.009000000
vt 0.666666667 0.416666667
v -0.107646171 0.196000000 0.000000000
vt 0.666666667 0.500000000
v -0.105557714 0.197205771 -0.009000000
vt 0.666666667 0.583333333
v -0.099851942 0.200500000 -0.015588457
vt 0.666666667 0.666666667
v -0.092057714 0.205000000 -0.018000000
vt 0.666666667 0.750000000
v -0.084263485 0.209500000 -0.015588457
vt 0.666666667 0.833333333
v -0.078557714 0.212794229 -0.009000000
vt 0.666666667 0.916666667
v -0.087267200 0.229421062 0.000000000
vt 0.722222222 0.000000000
v -0.089114549 0.227870952 0.009000000
vt 0.722222222 0.083333333
v -0.094161600 0.223635973 0.015588457
vt 0.722222222 0.166666667
v -0.101056000 0.217850885 0.018000000
vt 0.722222222 0.250000000
v -0.107950400 0.212065796 0.015588457
vt 0.722222222 0.333333333
v -0.112997451 0.207830818 0.009000000
vt 0.722222222 0.416666667
v -0.114844800 0.206280708 0.000000000
vt 0.722222222 0.500000000
v -0.112997451 0.207830818 -0.009000000
vt 0.722222222 0.583333333
v -0.107950400 0.212065796 -0.015588457
vt 0.722222222 0.666666667
v -0.101056000 0.217850885 -0.018000000
vt 0.722222222 0.750000000
v -0.094161600 0.223635973 -0.015588457
vt 0.722222222 0.833333333
v -0.089114549 0.227870952 -0.009000000
vt 0.722222222 0.916666667
v -0.100578938 0.242732800 0.000000000
vt 0.777777778 0.000000000
v -0.102129048 0.240885451 0.009000000
vt 0.777777778 0.083333333
v -0.106364027 0.235838400 0.015588457
vt 0.777777778 0.166666667
v -0.112149115 0.228944000 0.018000000
vt 0.777777778 0.250000000
v -0.117934204 0.222049600 0.015588457
vt 0.777777778 0.333333333
v -0.122169182 0.217002549 0.009000000
vt 0.777777778 0.416666667
v -0.123719292 0.215155200 0.000000000
vt 0.777777778 0.500000000
v -0.122169182 0.217002549 -0.009000000
vt 0.777777778 0.583333333
v -0.117934204 0.222049600 -0.015588457
vt 0.777777778 0.666666667
v -0.112149115 0.228944000 -0.018000000
vt 0.777777778 0.750000000
v -0.106364027 0.235838400 -0.015588457
vt 0.777777778 0.833333333
v -0.102129048 0.240885451 -0.009000000
vt 0.777777778 0.916666667
v -0.116000000 0.253530744 0.000000000
vt 0.833333333 0.000000000
v -0.117205771 0.251442286 0.009000000
vt 0.833333333 0.083333333
v -0.120500000 0.245736515 0.015588457
vt 0.833333333 0.166666667
v -0.125000000 0.237942286 0.018000000
vt 0.833333333 0.250000000
v -0.129500000 0.230148058 0.015588457
vt 0.833333333 0.333333333
v -0.132794229 0.224442286 0.009000000
vt 0.833333333 0.416666667
v -0.134000000 0.222353829 0.000000000
vt 0.833333333 0.500000000
v -0.132794229 0.224442286 -0.009000000
vt 0.833333333 0.583333333
v -0.129500000 0.230148058 -0.015588457
vt 0.833333333 0.666666667
v -0.125000000 0.237942286 -0.018000000
vt 0.833333333 0.750000000
v -0.120500000 0.245736515 -0.015588457
vt 0.833333333 0.833333333
v -0.117205771 0.251442286 -0.009000000
vt 0.833333333 0.916666667
v -0.133061825 0.261486803 0.000000000
vt 0.888888889 0.000000000
v -0.133886621 0.259220694 0.009000000
vt 0.888888889 0.083333333
v -0.136140006 0.253029569 0.015588457
vt 0.888888889 0.166666667
v -0.139218187 0.244572336 0.018000000
vt 0.888888889 0.250000000
v -0.142296368 0.236115102 0.015588457
vt 0.888888889 0.333333333
v -0.144549753 0.229923978 0.009000000
vt 0.888888889 0.416666667
v -0.145374550 0.227657869 0.000000000
vt 0.888888889 0.500000000
v -0.144549753 0.229923978 -0.009000000
vt 0.888888889 0.583333333
v -0.142296368 0.236115102 -0.015588457
vt 0.888888889 0.666666667
v -0.139218187 0.244572336 -0.018000000
vt 0.888888889 0.750000000
v -0.136140006 0.253029569 -0.015588457
vt 0.888888889 0.833333333
v -0.133886621 0.259220694 -0.009000000
vt 0.888888889 0.916666667
v -0.151245997 0.266359237 0.000000000
vt 0.944444444 0.000000000
v -0.151664757 0.263984331 0.009000000
vt 0.944444444 0.083333333
v -0.152808830 0.257495968 0.015588457
vt 0.944444444 0.166666667
v -0.154371664 0.248632698 0.018000000
vt 0.944444444 0.250000000
v -0.155934498 0.239769428 0.015588457
vt 0.944444444 0.333333333
v -0.157078571 0.233281064 0.009000000
vt 0.944444444 0.416666667
v -0.157497331 0.230906158 0.000000000
vt 0.944444444 0.500000000
v -0.157078571 0.233281064 -0.009000000
vt 0.944444444 0.583333333
v -0.155934498 0.239769428 -0.015588457
vt 0.944444444 0.666666667
v -0.154371664 0.248632698 -0.018000000
vt 0.944444444 0.750000000
v -0.152808830 0.257495968 -0.015588457
vt 0.944444444 0.833333333
v -0.151664757 0.263984331 -0.009000000
vt 0.944444444 0.916666667
v -0.170000000 0.268000000 0.000000000
vt 1.000000000 0.000000000
v -0.170000000 0.265588457 0.009000000
vt 1.000000000 0.083333333
v -0.170000000 0.259000000 0.015588457
vt 1.000000000 0.166666667
v -0.170000000 0.250000000 0.018000000
vt 1.000000000 0.250000000
v -0.170000000 0.241000000 0.015588457
vt 1.000000000 0.333333333
v -0.170000000 0.234411543 0.009000000
vt 1.000000000 0.416666667
v -0.170000000 0.232000000 0.000000000
vt 1.000000000 0.500000000
v -0.170000000 0.234411543 -0.009000000
vt 1.000000000 0.583333333
v -0.170000000 0.241000000 -0.015588457
vt 1.000000000 0.666666667
v -0.170000000 0.250000000 -0.018000000
vt 1.000000000 0.750000000
v -0.170000000 0.259000000 -0.015588457
vt 1.000000000 0.833333333
v -0.170000000 0.265588457 -0.009000000
vt 1.000000000 0.916666667
f 257/257 258/258 270/270 269/269
f 258/258 259/259 271/271 270/270
f 259/259 260/260 272/272 271/271
f 260/260 261/261 273/273 272/272
f 261/261 262/262 274/274 273/273
f 262/262 263/263 275/275 274/274
f 263/263 264/264 276/276 275/275
f 264/264 265/265 277/277 276/276
f 265/265 266/266 278/278 277/277
f 266/266 267/267 279/279 278/278
f 267/267 268/268 280/280 279/279
f 268/268 257/257 269/269 280/280
f 269/269 270/270 282/282 281/281
f 270/270 271/271 283/283 282/282
f 271/271 272/272 284/284 283/283
f 272/272 273/273 285/285 284/284
f 273/273 274/274 286/286 285/285
f 274/274 275/275 287/287 286/286
f 275/275 276/276 288/288 287/287
f 276/276 277/277 289/289 288/288
f 277/277 278/278 290/290 289/289
f 278/278 279/279 291/291 290/290
f 279/279 280/280 292/292 291/291
f 280/280 269/269 281/281 292/292
f 281/281 282/282 294/294 293/293
f 282/282 283/283 295/295 294/294
f 283/283 284/284 296/296 295/295
f 284/284 285/285 297/297 296/296
f 285/285 286/286 298/298 297/297
f 286/286 287/287 299/299 298/298
f 287/287 288/288 300/300 299/299
f 288/288 289/289 301/301 300/300
f 289/289 290/290 302/302 301/301
f 290/290 291/291 303/303 302/302
f 291/291 292/292 304/304 303/303
f 292/292 281/281 293/293 304/304
f 293/293 294/294 306/306 305/305
f 294/294 295/295 307/307 306/306
f 295/295 296/296 308/308 307/307
f 296/296 297/297 309/309 308/308
f 297/297 298/298 310/310 309/309
f 298/298 299/299 311/311 310/310
f 299/299 300/300 312/312 311/311
f 300/300 301/301 313/313 312/312
f 301/301 302/302 314/314 313/313
f 302/302 303/303 315/315 314/314
f 303/303 304/304 316/316 315/315
f 304/304 293/293 305/305 316/316
f 305/305 306/306 318/318 317/317
f 306/306 307/307 319/319 318/318
f 307/307 308/308 320/320 319/319
f 308/308 309/309 321/321 320/320
f 309/309 310/310 322/322 321/321
f 310/310 311/311 323/323 322/322
f 311/311 312/312 324/324 323/323
f 312/312 313/313 325/325 324/324
f 313/313 314/314 326/326 325/325
f 314/314 315/315 327/327 326/326
f 315/315 316/316 328/328 327/327
f 316/316 305/305 317/317 328/328
f 317/317 318/318 330/330 329/329
f 318/318 319/319 331/331 330/330
f 319/319 320/320 332/332 331/331
f 320/320 321/321 333/333 332/332
f 321/321 322/322 334/334 333/333
f 322/322 323/323 335/335 334/334
f 323/323 324/324 336/336 335/335
f 324/324 325/325 337/337 336/336
f 325/325 326/326 338/338 337/337
f 326/326 327/327 339/339 338/338
f 327/327 328/328 340/340 339/339
f 328/328 317/317 329/329 340/340
f 329/329 330/330 342/342 341/341
f 330/330 331/331 343/343 342/342
f 331/331 332/332 344/344 343/343
f 332/332 333/333 345/345 344/344
f 333/333 334/334 346/346 345/345
f 334/334 335/335 347/347 346/346
f 335/335 336/336 348/348 347/347
f 336/336 337/337 349/349 348/348
f 337/337 338/338 350/350 349/349
f 338/338 339/339 351/351 350/350
f 339/339 340/340 352/352 351/351
f 340/340 329/329 341/341 352/352
f 341/341 342/342 354/354 353/353
f 342/342 343/343 355/355 354/354
f 343/343 344/344 356/356 355/355
f 344/344 345/345 357/357 356/356
f 345/345 346/346 358/358 357/357
f 346/346 347/347 359/359 358/358
f 347/347 348/348 360/360 359/359
f 348/348 349/349 361/361 360/360
f 349/349 350/350 362/362 361/361
f 350/350 351/351 363/363 362/362
f 351/351 352/352 364/364 363/363
f 352/352 341/341 353/353 364/364
f 353/353 354/354 366/366 365/365
f 354/354 355/355 367/367 366/366
f 355/355 356/356 368/368 367/367
f 356/356 357/357 369/369 368/368
f 357/357 358/358 370/370 369/369
f 358/358 359/359 371/371 370/370
f 359/359 360/360 372/372 371/371
f 360/360 361/361 373/373 372/372
f 361/361 362/362 374/374 373/373
f 362/362 363/363 375/375 374/374
f 363/363 364/364 376/376 375/375
f 364/364 353/353 365/365 376/376
f 365/365 366/366 378/378 377/377
f 366/366 367/367 379/379 378/378
f 367/367 368/368 380/380 379/379
f 368/368 369/369 381/381 380/380
f 369/369 370/370 382/382 381/381
f 370/370 371/371 383/383 382/382
f 371/371 372/372 384/384 383/383
f 372/372 373/373 385/385 384/384
f 373/373 374/374 386/386 385/385
f 374/374 375/375 387/387 386/386
f 375/375 376/376 388/388 387/387
f 376/376 365/365 377/377 388/388
f 377/377 378/378 390/390 389/389
f 378/378 379/379 391/391 390/390
f 379/379 380/380 392/392 391/391
f 380/380 381/381 393/393 392/392
f 381/381 382/382 394/394 393/393
f 382/382 383/383 395/395 394/394
f 383/383 384/384 396/396 395/395
f 384/384 385/385 397/397 396/396
f 385/385 386/386 398/398 397/397
f 386/386 387/387 399/399 398/398
f 387/387 388/388 400/400 399/399
f 388/388 377/377 389/389 400/400
f 389/389 390/390 402/402 401/401
f 390/390 391/391 403/403 402/402
f 391/391 392/392 404/404 403/403
f 392/392 393/393 405/405 404/404
f 393/393 394/394 406/406 405/405
f 394/394 395/395 407/407 406/406
f 395/395 396/396 408/408 407/407
f 396/396 397/397 409/409 408/408
f 397/397 398/398 410/410 409/409
f 398/398 399/399 411/411 410/410
f 399/399 400/400 412/412 411/411
f 400/400 389/389 401/401 412/412
f 401/401 402/402 414/414 413/413
f 402/402 403/403 415/415 414/414
f 403/403 404/404 416/416 415/415
f 404/404 405/405 417/417 416/416
f 405/405 406/406 418/418 417/417
f 406/406 407/407 419/419 418/418
f 407/407 408/408 420/420 419/419
f 408/408 409/409 421/421 420/420
f 409/409 410/410 422/422 421/421
f 410/410 411/411 423/423 422/422
f 411/411 412/412 424/424 423/423
f 412/412 401/401 413/413 424/424
f 413/413 414/414 426/426 425/425
f 414/414 415/415 427/427 426/426
f 415/415 416/416 428/428 427/427
f 416/416 417/417 429/429 428/428
f 417/417 418/418 430/430 429/429
f 418/418 419/419 431/431 430/430
f 419/419 420/420 432/432 431/431
f 420/420 421/421 433/433 432/432
f 421/421 422/422 434/434 433/433
f 422/422 423/423 435/435 434/434
f 423/423 424/424 436/436 435/435
f 424/424 413/413 425/425 436/436
f 425/425 426/426 438/438 437/437
f 426/426 427/427 439/439 438/438
f 427/427 428/428 440/440 439/439
f 428/428 429/429 441/441 440/440
f 429/429 430/430 442/442 441/441
f 430/430 431/431 443/443 442/442
f 431/431 432/432 444/444 443/443
f 432/432 433/433 445/445 444/444
f 433/433 434/434 446/446 445/445
f 434/434 435/435 447/447 446/446
f 435/435 436/436 448/448 447/447
f 436/436 425/425 437/437 448/448
f 437/437 438/438 450/450 449/449
f 438/438 439/439 451/451 450/450
f 439/439 440/440 452/452 451/451
f 440/440 441/441 453/453 452/452
f 441/441 442/442 454/454 453/453
f 442/442 443/443 455/455 454/454
f 443/443 444/444 456/456 455/455
f 444/444 445/445 457/457 456/456
f 445/445 446/446 458/458 457/457
f 446/446 447/447 459/459 458/458
f 447/447 448/448 460/460 459/459
f 448/448 437/437 449/449 460/460
f 449/449 450/450 462/462 461/461
f 450/450 451/451 463/463 462/462
f 451/451 452/452 464/464 463/463
f 452/452 453/453 465/465 464/464
f 453/453 454/454 466/466 465/465
f 454/454 455/455 467/467 466/466
f 455/455 456/456 468/468 467/467
f 456/456 457/457 469/469 468/468
f 457/457 458/458 470/470 469/469
f 458/458 459/459 471/471 470/470
f 459/459 460/460 472/472 471/471
f 460/460 449/449 461/461 472/472
f 461/461 462/462 474/474 473/473
f 462/462 463/463 475/475 474/474
f 463/463 464/464 476/476 475/475
f 464/464 465/465 477/477 476/476
f 465/465 466/466 478/478 477/477
f 466/466 467/467 479/479 478/478
f 467/467 468/468 480/480 479/479
f 468/468 469/469 481/481 480/480
f 469/469 470/470 482/482 481/481
f 470/470 471/471 483/483 482/482
f 471/471 472/472 484/484 483/483
f 472/472 461/461 473/473 484/484
